Genre:Animation | Adventure | Comedy
Language:English 
http://www.imdb.com/title/tt1667889/
Source:RESiSTANCE Thanks!
Encoder:Tony

Format : AVI
Format/Info : Audio Video Interleave
File size : 940 MiB
Duration : 1h 18mn
Overall bit rate : 1 668 Kbps

Video
ID : 0
Format : MPEG-4 Visual
Format profile : Advanced Simple@L5
Format settings, BVOP : 1
Format settings, QPel : No
Format settings, GMC : No warppoints
Format settings, Matrix : Default (H.263)
Codec ID : XVID
Codec ID/Hint : XviD
Duration : 1h 18mn
Bit rate : 1 499 Kbps
Width : 640 pixels
Height : 272 pixels
Display aspect ratio : 2.35:1
Frame rate : 23.976 fps
Color space : YUV
Chroma subsampling : 4:2:0
Bit depth : 8 bits
Scan type : Progressive
Compression mode : Lossy
Bits/(Pixel*Frame) : 0.359
Stream size : 845 MiB (90%)
Writing library : XviD 1.2.1 (UTC 2008-12-04)

Audio
ID : 1
Format : AC-3
Format/Info : Audio Coding 3
Mode extension : CM (complete main)
Codec ID : 2000
Duration : 1h 18mn
Bit rate mode : Constant
Bit rate : 160 Kbps
Channel(s) : 2 channels
Channel positions : Front: L R
Sampling rate : 48.0 KHz
Bit depth : 16 bits
Compression mode : Lossy
Stream size : 90.1 MiB (10%)
Alignment : Aligned on interleaves
Interleave, duration : 42 ms (1.00 video frame)
Interleave, preload duration : 512 ms


Plot:
Manny, Diego, and Sid embark upon another adventure after their continent is set adrift. Using an iceberg as a ship, they encounter sea creatures and battle pirates as they explore a new world.
 
http://img706.imageshack.us/img706/8619/vlcsnap2012080118h03m26.png 
http://img62.imageshack.us/img62/9804/vlcsnap2012080118h03m52.png 
http://img267.imageshack.us/img267/570/vlcsnap2012080118h04m06.png 
http://img690.imageshack.us/img690/172/vlcsnap2012080118h04m20.png 
http://img823.imageshack.us/img823/4507/vlcsnap2012080118h04m24.png